# xmcd
#
# Track frame offsets: 
#        150
#        3998
#        20475
#        39881
#        57836
#        74353
#        89974
#        106206
#        123867
#        130188
#        147537
#        162849
#        181560
#        184576
#        203455
#        223390
#        227566
#
# Disc length: 3241 seconds
#
# Revision: 0
# Processed by: cddbd v1.5.1PL2 Copyright (c) Steve Scherf et al.
# Submitted via: ExactAudioCopy v0.95b4
#
DISCID=e50ca711
DTITLE=Dream - Reality
DYEAR=2003
DGENRE=R&B
TTITLE0=Diana (interlude)
TTITLE1=Why me
TTITLE2=That's ok (ft. Fabolous)
TTITLE3=Crazy (ft. Loon)
TTITLE4=Hard to stop
TTITLE5=The real me
TTITLE6=What it is you're feeling
TTITLE7=Bring it back
TTITLE8=Holly (interlude)
TTITLE9=Sitting here
TTITLE10=Clap
TTITLE11=Promise me
TTITLE12=Kasey (interlude)
TTITLE13=It could happen
TTITLE14=Controlled
TTITLE15=Ashley (interlude)
TTITLE16=I am woman
EXTD=
EXTT0=
EXTT1=
EXTT2=
EXTT3=
EXTT4=
EXTT5=
EXTT6=
EXTT7=
EXTT8=
EXTT9=
EXTT10=
EXTT11=
EXTT12=
EXTT13=
EXTT14=
EXTT15=
EXTT16=
PLAYORDER=
